<svg width="11" height="34" viewBox="0 0 11 34" fill="none" xmlns="http://www.w3.org/2000/svg">
<path d="M5.5 12.2188C8.19479 12.2188 10.375 14.357 10.375 17C10.375 19.643 8.19479 21.7812 5.5 21.7812C2.80521 21.7812 0.625 19.643 0.625 17C0.625 14.357 2.80521 12.2188 5.5 12.2188ZM0.625 5.3125C0.625 7.95547 2.80521 10.0938 5.5 10.0938C8.19479 10.0938 10.375 7.95547 10.375 5.3125C10.375 2.66953 8.19479 0.53125 5.5 0.53125C2.80521 0.53125 0.625 2.66953 0.625 5.3125ZM0.625 28.6875C0.625 31.3305 2.80521 33.4688 5.5 33.4688C8.19479 33.4688 10.375 31.3305 10.375 28.6875C10.375 26.0445 8.19479 23.9062 5.5 23.9062C2.80521 23.9062 0.625 26.0445 0.625 28.6875Z" fill="#332F2F"/>
</svg>
